<svg width="16" height="16" viewBox="0 0 16 16" fill="none" xmlns="http://www.w3.org/2000/svg">
<g clip-path="url(#clip0_2086_12071)">
<path d="M14.25 2H13V1.5C13 1.23478 12.8946 0.98043 12.7071 0.792893C12.5196 0.605357 12.2652 0.5 12 0.5C11.7348 0.5 11.4804 0.605357 11.2929 0.792893C11.1054 0.98043 11 1.23478 11 1.5V2H9V1.5C9 1.23478 8.89464 0.98043 8.70711 0.792893C8.51957 0.605357 8.26522 0.5 8 0.5C7.73478 0.5 7.48043 0.605357 7.29289 0.792893C7.10536 0.98043 7 1.23478 7 1.5V2H5V1.5C5 1.23478 4.89464 0.98043 4.70711 0.792893C4.51957 0.605357 4.26522 0.5 4 0.5C3.73478 0.5 3.48043 0.605357 3.29289 0.792893C3.10536 0.98043 3 1.23478 3 1.5V2H1.75C1.41848 2 1.10054 2.1317 0.866117 2.36612C0.631696 2.60054 0.5 2.91848 0.5 3.25V13.25C0.5 13.5815 0.631696 13.8995 0.866117 14.1339C1.10054 14.3683 1.41848 14.5 1.75 14.5H8.75C8.8163 14.5 8.87989 14.4737 8.92678 14.4268C8.97366 14.3799 9 14.3163 9 14.25C9 14.1837 8.97366 14.1201 8.92678 14.0732C8.87989 14.0263 8.8163 14 8.75 14H1.75C1.55127 13.9994 1.36085 13.9202 1.22033 13.7797C1.0798 13.6392 1.00059 13.4487 1 13.25V5.5H15V9.75C15 9.8163 15.0263 9.87989 15.0732 9.92678C15.1201 9.97366 15.1837 10 15.25 10C15.3163 10 15.3799 9.97366 15.4268 9.92678C15.4737 9.87989 15.5 9.8163 15.5 9.75V3.25C15.5 2.91848 15.3683 2.60054 15.1339 2.36612C14.8995 2.1317 14.5815 2 14.25 2ZM11.5 1.5C11.5 1.36739 11.5527 1.24021 11.6464 1.14645C11.7402 1.05268 11.8674 1 12 1C12.1326 1 12.2598 1.05268 12.3536 1.14645C12.4473 1.24021 12.5 1.36739 12.5 1.5V3C12.5 3.13261 12.4473 3.25979 12.3536 3.35355C12.2598 3.44732 12.1326 3.5 12 3.5C11.8674 3.5 11.7402 3.44732 11.6464 3.35355C11.5527 3.25979 11.5 3.13261 11.5 3V1.5ZM7.5 1.5C7.5 1.36739 7.55268 1.24021 7.64645 1.14645C7.74021 1.05268 7.86739 1 8 1C8.13261 1 8.25979 1.05268 8.35355 1.14645C8.44732 1.24021 8.5 1.36739 8.5 1.5V3C8.5 3.13261 8.44732 3.25979 8.35355 3.35355C8.25979 3.44732 8.13261 3.5 8 3.5C7.86739 3.5 7.74021 3.44732 7.64645 3.35355C7.55268 3.25979 7.5 3.13261 7.5 3V1.5ZM3.5 1.5C3.5 1.36739 3.55268 1.24021 3.64645 1.14645C3.74021 1.05268 3.86739 1 4 1C4.13261 1 4.25979 1.05268 4.35355 1.14645C4.44732 1.24021 4.5 1.36739 4.5 1.5V3C4.5 3.13261 4.44732 3.25979 4.35355 3.35355C4.25979 3.44732 4.13261 3.5 4 3.5C3.86739 3.5 3.74021 3.44732 3.64645 3.35355C3.55268 3.25979 3.5 3.13261 3.5 3V1.5ZM15 5H1V3.25C1.00059 3.05127 1.0798 2.86085 1.22033 2.72033C1.36085 2.5798 1.55127 2.50059 1.75 2.5H3V3C3 3.26522 3.10536 3.51957 3.29289 3.70711C3.48043 3.89464 3.73478 4 4 4C4.26522 4 4.51957 3.89464 4.70711 3.70711C4.89464 3.51957 5 3.26522 5 3V2.5H7V3C7 3.26522 7.10536 3.51957 7.29289 3.70711C7.48043 3.89464 7.73478 4 8 4C8.26522 4 8.51957 3.89464 8.70711 3.70711C8.89464 3.51957 9 3.26522 9 3V2.5H11V3C11 3.26522 11.1054 3.51957 11.2929 3.70711C11.4804 3.89464 11.7348 4 12 4C12.2652 4 12.5196 3.89464 12.7071 3.70711C12.8946 3.51957 13 3.26522 13 3V2.5H14.25C14.4487 2.50059 14.6392 2.5798 14.7797 2.72033C14.9202 2.86085 14.9994 3.05127 15 3.25V5Z" fill="#28397F"/>
<path d="M7.5 7.25C7.5 7.11739 7.44732 6.99021 7.35355 6.89645C7.25979 6.80268 7.13261 6.75 7 6.75H6C5.86739 6.75 5.74021 6.80268 5.64645 6.89645C5.55268 6.99021 5.5 7.11739 5.5 7.25V8C5.5 8.13261 5.55268 8.25979 5.64645 8.35355C5.74021 8.44732 5.86739 8.5 6 8.5H7C7.13261 8.5 7.25979 8.44732 7.35355 8.35355C7.44732 8.25979 7.5 8.13261 7.5 8V7.25ZM6 8V7.25H7V8H6Z" fill="#28397F"/>
<path d="M4.5 7.25C4.5 7.11739 4.44732 6.99021 4.35355 6.89645C4.25979 6.80268 4.13261 6.75 4 6.75H3C2.86739 6.75 2.74021 6.80268 2.64645 6.89645C2.55268 6.99021 2.5 7.11739 2.5 7.25V8C2.5 8.13261 2.55268 8.25979 2.64645 8.35355C2.74021 8.44732 2.86739 8.5 3 8.5H4C4.13261 8.5 4.25979 8.44732 4.35355 8.35355C4.44732 8.25979 4.5 8.13261 4.5 8V7.25ZM3 8V7.25H4V8H3Z" fill="#28397F"/>
<path d="M13 8.5C13.1326 8.5 13.2598 8.44732 13.3536 8.35355C13.4473 8.25979 13.5 8.13261 13.5 8V7.25C13.5 7.11739 13.4473 6.99021 13.3536 6.89645C13.2598 6.80268 13.1326 6.75 13 6.75H12C11.8674 6.75 11.7402 6.80268 11.6464 6.89645C11.5527 6.99021 11.5 7.11739 11.5 7.25V8C11.5 8.13261 11.5527 8.25979 11.6464 8.35355C11.7402 8.44732 11.8674 8.5 12 8.5H13ZM12 7.25H13V8H12V7.25Z" fill="#28397F"/>
<path d="M7.5 9.5C7.5 9.36739 7.44732 9.24021 7.35355 9.14645C7.25979 9.05268 7.13261 9 7 9H6C5.86739 9 5.74021 9.05268 5.64645 9.14645C5.55268 9.24021 5.5 9.36739 5.5 9.5V10.25C5.5 10.3826 5.55268 10.5098 5.64645 10.6036C5.74021 10.6973 5.86739 10.75 6 10.75H7C7.13261 10.75 7.25979 10.6973 7.35355 10.6036C7.44732 10.5098 7.5 10.3826 7.5 10.25V9.5ZM6 10.25V9.5H7V10.25H6Z" fill="#28397F"/>
<path d="M4.5 9.5C4.5 9.36739 4.44732 9.24021 4.35355 9.14645C4.25979 9.05268 4.13261 9 4 9H3C2.86739 9 2.74021 9.05268 2.64645 9.14645C2.55268 9.24021 2.5 9.36739 2.5 9.5V10.25C2.5 10.3826 2.55268 10.5098 2.64645 10.6036C2.74021 10.6973 2.86739 10.75 3 10.75H4C4.13261 10.75 4.25979 10.6973 4.35355 10.6036C4.44732 10.5098 4.5 10.3826 4.5 10.25V9.5ZM3 10.25V9.5H4V10.25H3Z" fill="#28397F"/>
<path d="M7 11.25H6C5.86739 11.25 5.74021 11.3027 5.64645 11.3964C5.55268 11.4902 5.5 11.6174 5.5 11.75V12.5C5.5 12.6326 5.55268 12.7598 5.64645 12.8536C5.74021 12.9473 5.86739 13 6 13H7C7.13261 13 7.25979 12.9473 7.35355 12.8536C7.44732 12.7598 7.5 12.6326 7.5 12.5V11.75C7.5 11.6174 7.44732 11.4902 7.35355 11.3964C7.25979 11.3027 7.13261 11.25 7 11.25ZM6 12.5V11.75H7V12.5H6Z" fill="#28397F"/>
<path d="M9 8.5H10C10.1326 8.5 10.2598 8.44732 10.3536 8.35355C10.4473 8.25979 10.5 8.13261 10.5 8V7.25C10.5 7.11739 10.4473 6.99021 10.3536 6.89645C10.2598 6.80268 10.1326 6.75 10 6.75H9C8.86739 6.75 8.74021 6.80268 8.64645 6.89645C8.55268 6.99021 8.5 7.11739 8.5 7.25V8C8.5 8.13261 8.55268 8.25979 8.64645 8.35355C8.74021 8.44732 8.86739 8.5 9 8.5ZM9 7.25H10V8H9V7.25Z" fill="#28397F"/>
<path d="M8.5 10.25C8.5 10.3826 8.55268 10.5098 8.64645 10.6036C8.74021 10.6973 8.86739 10.75 9 10.75C9.0663 10.75 9.12989 10.7237 9.17678 10.6768C9.22366 10.6299 9.25 10.5663 9.25 10.5C9.25 10.4337 9.22366 10.3701 9.17678 10.3232C9.12989 10.2763 9.0663 10.25 9 10.25V9.5H10C10.0663 9.5 10.1299 9.47366 10.1768 9.42678C10.2237 9.37989 10.25 9.3163 10.25 9.25C10.25 9.1837 10.2237 9.12011 10.1768 9.07322C10.1299 9.02634 10.0663 9 10 9H9C8.86739 9 8.74021 9.05268 8.64645 9.14645C8.55268 9.24021 8.5 9.36739 8.5 9.5V10.25Z" fill="#28397F"/>
<path d="M4 11.25H3C2.86739 11.25 2.74021 11.3027 2.64645 11.3964C2.55268 11.4902 2.5 11.6174 2.5 11.75V12.5C2.5 12.6326 2.55268 12.7598 2.64645 12.8536C2.74021 12.9473 2.86739 13 3 13H4C4.13261 13 4.25979 12.9473 4.35355 12.8536C4.44732 12.7598 4.5 12.6326 4.5 12.5V11.75C4.5 11.6174 4.44732 11.4902 4.35355 11.3964C4.25979 11.3027 4.13261 11.25 4 11.25ZM3 12.5V11.75H4V12.5H3Z" fill="#28397F"/>
<path d="M12.25 9C11.6072 9 10.9789 9.19061 10.4444 9.54772C9.90994 9.90484 9.49338 10.4124 9.24739 11.0063C9.00141 11.6001 8.93705 12.2536 9.06245 12.884C9.18785 13.5145 9.49738 14.0936 9.9519 14.5481C10.4064 15.0026 10.9855 15.3122 11.616 15.4376C12.2464 15.563 12.8999 15.4986 13.4937 15.2526C14.0876 15.0066 14.5952 14.5901 14.9523 14.0556C15.3094 13.5211 15.5 12.8928 15.5 12.25C15.499 11.3884 15.1563 10.5623 14.547 9.953C13.9377 9.34372 13.1117 9.00099 12.25 9ZM12.25 15C11.7061 15 11.1744 14.8387 10.7222 14.5365C10.2699 14.2344 9.91747 13.8049 9.70933 13.3024C9.50119 12.7999 9.44673 12.2469 9.55284 11.7135C9.65895 11.1801 9.92086 10.6901 10.3055 10.3055C10.6901 9.92086 11.1801 9.65895 11.7135 9.55284C12.247 9.44673 12.7999 9.50119 13.3024 9.70933C13.8049 9.91747 14.2344 10.2699 14.5365 10.7222C14.8387 11.1744 15 11.7061 15 12.25C14.9991 12.9791 14.7091 13.6781 14.1936 14.1936C13.6781 14.7091 12.9791 14.9991 12.25 15Z" fill="#28397F"/>
<path d="M13.6943 11.202L11.7498 13.1465L10.8661 12.2625C10.8189 12.217 10.7558 12.1918 10.6902 12.1923C10.6247 12.1929 10.562 12.2192 10.5156 12.2656C10.4693 12.3119 10.443 12.3746 10.4424 12.4402C10.4418 12.5057 10.467 12.5689 10.5126 12.616L11.5731 13.6768C11.6199 13.7236 11.6835 13.75 11.7498 13.75C11.8161 13.75 11.8797 13.7236 11.9266 13.6768L14.0478 11.5555C14.0934 11.5084 14.1185 11.4452 14.118 11.3797C14.1174 11.3141 14.0911 11.2514 14.0448 11.2051C13.9984 11.1587 13.9357 11.1324 13.8702 11.1318C13.8046 11.1313 13.7415 11.1565 13.6943 11.202Z" fill="#28397F"/>
</g>
<defs>
<clipPath id="clip0_2086_12071">
<rect width="16" height="16" fill="white"/>
</clipPath>
</defs>
</svg>
